STARTFONT 2.1
FONT -Bitstream-Prestige-Medium-R-Normal--19-160-85-85-M-80-ISO8859-1
SIZE 16 85 85
FONTBOUNDINGBOX 8 19 0 -4

STARTPROPERTIES 27
FONTNAME_REGISTRY ""
FAMILY_NAME "Prestige"
FOUNDRY "Bitstream"
WEIGHT_NAME "Medium"
SETWIDTH_NAME "Normal"
SLANT "R"
ADD_STYLE_NAME "Serif"
PIXEL_SIZE 19
POINT_SIZE 160
RESOLUTION_X 85
RESOLUTION_Y 85
SPACING "M"
AVERAGE_WIDTH 80
CHARSET_REGISTRY "ISO8859"
CHARSET_ENCODING "1"
CAP_HEIGHT 12
X_HEIGHT 8
CHARSET_COLLECTIONS "ISO8859-1"
FULL_NAME "Prestige-12Pitch"
COPYRIGHT "Copyright 1989 by Bitstream, Inc. All rights reserved."
NOTICE "Prestige is a registered trademark of Bitstream, Inc."
NOTICE "This Font is licensed for use on Hewlett-Packard Equipment only."
WEIGHT 10
QUAD_WIDTH 8
DEFAULT_CHAR 0
FONT_DESCENT 4
FONT_ASCENT 15
ENDPROPERTIES

CHARS 223

STARTCHAR Null
ENCODING 0
SWIDTH 602 0
DWIDTH 8 0
BBX 8 19 0 -4
BITMAP
00
90
D0
B0
90
90
00
24
24
24
24
18
00
08
08
08
08
0F
00
ENDCHAR

STARTCHAR StartOfHeading
ENCODING 1
SWIDTH 602 0
DWIDTH 8 0
BBX 8 19 0 -4
BITMAP
00
70
80
60
10
E0
00
18
24
24
24
18
00
09
09
0F
09
09
00
ENDCHAR

STARTCHAR StartOfText
ENCODING 2
SWIDTH 602 0
DWIDTH 8 0
BBX 8 19 0 -4
BITMAP
00
70
80
60
10
E0
00
3E
08
08
08
08
00
09
06
06
09
09
00
ENDCHAR

STARTCHAR EndOfText
ENCODING 3
SWIDTH 602 0
DWIDTH 8 0
BBX 8 19 0 -4
BITMAP
00
F0
80
E0
80
F0
00
3E
08
08
08
08
00
09
06
06
09
09
00
ENDCHAR

STARTCHAR EndOfTransmit
ENCODING 4
SWIDTH 602 0
DWIDTH 8 0
BBX 8 19 0 -4
BITMAP
00
F0
80
E0
80
F0
00
18
24
24
24
18
00
1F
04
04
04
04
00
ENDCHAR

STARTCHAR Enquiry
ENCODING 5
SWIDTH 602 0
DWIDTH 8 0
BBX 8 19 0 -4
BITMAP
00
F0
80
E0
80
F0
00
24
34
2C
24
24
00
06
09
09
09
06
03
ENDCHAR

STARTCHAR Acknowledge
ENCODING 6
SWIDTH 602 0
DWIDTH 8 0
BBX 8 19 0 -4
BITMAP
00
60
90
F0
90
90
00
18
24
20
24
18
00
09
0A
0C
0A
09
00
ENDCHAR

STARTCHAR Bell
ENCODING 7
SWIDTH 602 0
DWIDTH 8 0
BBX 8 19 0 -4
BITMAP
00
00
00
08
14
22
22
22
22
22
22
22
22
41
7F
04
06
00
00
ENDCHAR

STARTCHAR BackSpace
ENCODING 8
SWIDTH 602 0
DWIDTH 8 0
BBX 8 19 0 -4
BITMAP
00
78
44
44
78
44
44
78
00
0F
10
10
0E
01
01
1E
00
00
00
ENDCHAR

STARTCHAR HorizontalTab
ENCODING 9
SWIDTH 602 0
DWIDTH 8 0
BBX 8 19 0 -4
BITMAP
00
44
44
44
7C
44
44
44
00
1F
04
04
04
04
04
04
00
00
00
ENDCHAR

STARTCHAR LineFeed
ENCODING 10
SWIDTH 602 0
DWIDTH 8 0
BBX 8 19 0 -4
BITMAP
00
40
40
40
40
40
40
7C
00
1F
10
10
1E
10
10
10
00
00
00
ENDCHAR

STARTCHAR VerticalTab
ENCODING 11
SWIDTH 602 0
DWIDTH 8 0
BBX 8 19 0 -4
BITMAP
00
44
44
44
28
28
10
10
00
1F
04
04
04
04
04
04
00
00
00
ENDCHAR

STARTCHAR FormFeed
ENCODING 12
SWIDTH 602 0
DWIDTH 8 0
BBX 8 19 0 -4
BITMAP
00
7C
40
40
78
40
40
40
00
1F
10
10
1E
10
10
10
00
00
00
ENDCHAR

STARTCHAR CarriageReturn
ENCODING 13
SWIDTH 602 0
DWIDTH 8 0
BBX 8 19 0 -4
BITMAP
00
38
44
40
40
40
44
38
00
1E
11
11
1E
12
11
11
00
00
00
ENDCHAR

STARTCHAR ShiftOut
ENCODING 14
SWIDTH 602 0
DWIDTH 8 0
BBX 8 19 0 -4
BITMAP
00
3C
40
40
38
04
04
78
00
0E
11
11
11
11
11
0E
00
00
00
ENDCHAR

STARTCHAR ShiftIn
ENCODING 15
SWIDTH 602 0
DWIDTH 8 0
BBX 8 19 0 -4
BITMAP
00
3C
40
40
38
04
04
78
00
0E
04
04
04
04
04
0E
00
00
00
ENDCHAR

STARTCHAR DataLinkEscape
ENCODING 16
SWIDTH 602 0
DWIDTH 8 0
BBX 8 19 0 -4
BITMAP
00
E0
90
90
90
E0
00
20
20
20
20
3C
00
0F
08
0E
08
0F
00
ENDCHAR

STARTCHAR DevCtrl1orXon
ENCODING 17
SWIDTH 602 0
DWIDTH 8 0
BBX 8 19 0 -4
BITMAP
00
E0
90
90
90
E0
00
18
24
20
24
18
00
02
06
02
02
02
00
ENDCHAR

STARTCHAR DeviceControl2
ENCODING 18
SWIDTH 602 0
DWIDTH 8 0
BBX 8 19 0 -4
BITMAP
00
E0
90
90
90
E0
00
18
24
20
24
18
00
06
09
02
04
0F
00
ENDCHAR

STARTCHAR DevCtrl3orXoff
ENCODING 19
SWIDTH 602 0
DWIDTH 8 0
BBX 8 19 0 -4
BITMAP
00
E0
90
90
90
E0
00
18
24
20
24
18
00
0E
01
06
01
0E
00
ENDCHAR

STARTCHAR DeviceControl4
ENCODING 20
SWIDTH 602 0
DWIDTH 8 0
BBX 8 19 0 -4
BITMAP
00
E0
90
90
90
E0
00
18
24
20
24
18
00
02
06
0A
0F
02
00
ENDCHAR

STARTCHAR NegAcknowledge
ENCODING 21
SWIDTH 602 0
DWIDTH 8 0
BBX 8 19 0 -4
BITMAP
00
90
D0
B0
90
90
00
18
24
3C
24
24
00
09
0A
0C
0A
09
00
ENDCHAR

STARTCHAR SynchronusIdle
ENCODING 22
SWIDTH 602 0
DWIDTH 8 0
BBX 8 19 0 -4
BITMAP
00
70
80
60
10
E0
00
22
14
08
08
08
00
09
0D
0B
09
09
00
ENDCHAR

STARTCHAR EndTransmit
ENCODING 23
SWIDTH 602 0
DWIDTH 8 0
BBX 8 19 0 -4
BITMAP
00
F0
80
E0
80
F0
00
3E
08
08
08
08
00
0E
09
0E
09
0E
00
ENDCHAR

STARTCHAR Cancel
ENCODING 24
SWIDTH 602 0
DWIDTH 8 0
BBX 8 19 0 -4
BITMAP
00
60
90
80
90
60
00
18
24
3C
24
24
00
09
0D
0B
09
09
00
ENDCHAR

STARTCHAR EndOfMedium
ENCODING 25
SWIDTH 602 0
DWIDTH 8 0
BBX 8 19 0 -4
BITMAP
00
7C
40
40
78
40
40
7C
00
11
1B
15
15
11
11
11
00
00
00
ENDCHAR

STARTCHAR Substitute
ENCODING 26
SWIDTH 602 0
DWIDTH 8 0
BBX 8 19 0 -4
BITMAP
00
70
80
60
10
E0
00
24
24
24
24
18
00
0E
09
0E
09
0E
00
ENDCHAR

STARTCHAR Escape
ENCODING 27
SWIDTH 602 0
DWIDTH 8 0
BBX 8 19 0 -4
BITMAP
00
F0
80
E0
80
F0
00
1C
20
18
04
38
00
06
09
08
09
06
00
ENDCHAR

STARTCHAR FileSeparator
ENCODING 28
SWIDTH 602 0
DWIDTH 8 0
BBX 8 19 0 -4
BITMAP
00
7C
40
40
78
40
40
40
00
0F
10
10
0E
01
01
1E
00
00
00
ENDCHAR

STARTCHAR GroupSeparator
ENCODING 29
SWIDTH 602 0
DWIDTH 8 0
BBX 8 19 0 -4
BITMAP
00
38
44
40
40
4C
44
38
00
0F
10
10
0E
01
01
1E
00
00
00
ENDCHAR

STARTCHAR RecordSeparatr
ENCODING 30
SWIDTH 602 0
DWIDTH 8 0
BBX 8 19 0 -4
BITMAP
00
78
44
44
78
48
44
44
00
0F
10
10
0E
01
01
1E
00
00
00
ENDCHAR

STARTCHAR UnitSeparator
ENCODING 31
SWIDTH 602 0
DWIDTH 8 0
BBX 8 19 0 -4
BITMAP
00
44
44
44
44
44
44
38
00
0F
10
10
0E
01
01
1E
00
00
00
ENDCHAR

STARTCHAR PrintableSpace
ENCODING 32
SWIDTH 602 0
DWIDTH 8 0
BBX 8 19 0 -4
BITMAP
00
00
00
00
00
00
00
00
00
00
00
00
00
00
00
00
00
00
00
ENDCHAR

STARTCHAR Exclamation
ENCODING 33
SWIDTH 602 0
DWIDTH 8 0
BBX 8 19 0 -4
BITMAP
00
00
18
18
18
18
18
18
18
18
18
00
00
18
18
18
00
00
00
ENDCHAR

STARTCHAR NeutrlDblQuote
ENCODING 34
SWIDTH 602 0
DWIDTH 8 0
BBX 8 19 0 -4
BITMAP
00
00
24
24
24
24
24
00
00
00
00
00
00
00
00
00
00
00
00
ENDCHAR

STARTCHAR NumberSign
ENCODING 35
SWIDTH 602 0
DWIDTH 8 0
BBX 8 19 0 -4
BITMAP
00
00
14
14
14
14
7F
14
14
14
14
7F
14
14
14
14
00
00
00
ENDCHAR

STARTCHAR DollarSign
ENCODING 36
SWIDTH 602 0
DWIDTH 8 0
BBX 8 19 0 -4
BITMAP
00
00
08
08
3E
42
42
40
30
0C
02
42
42
7C
08
08
00
00
00
ENDCHAR

STARTCHAR PerCentSign
ENCODING 37
SWIDTH 602 0
DWIDTH 8 0
BBX 8 19 0 -4
BITMAP
00
00
31
49
4A
4A
34
04
08
08
10
16
29
29
49
46
00
00
00
ENDCHAR

STARTCHAR Ampersand
ENCODING 38
SWIDTH 602 0
DWIDTH 8 0
BBX 8 19 0 -4
BITMAP
00
00
18
24
24
24
24
18
18
29
45
45
42
42
45
39
00
00
00
ENDCHAR

STARTCHAR SingleCloseQut
ENCODING 39
SWIDTH 602 0
DWIDTH 8 0
BBX 8 19 0 -4
BITMAP
00
00
18
18
18
08
10
20
00
00
00
00
00
00
00
00
00
00
00
ENDCHAR

STARTCHAR OpenParen
ENCODING 40
SWIDTH 602 0
DWIDTH 8 0
BBX 8 19 0 -4
BITMAP
00
02
04
0C
08
18
18
18
18
18
18
18
18
08
0C
04
02
00
00
ENDCHAR

STARTCHAR CloseParen
ENCODING 41
SWIDTH 602 0
DWIDTH 8 0
BBX 8 19 0 -4
BITMAP
00
20
10
18
08
0C
0C
0C
0C
0C
0C
0C
0C
08
18
10
20
00
00
ENDCHAR

STARTCHAR Asterisk
ENCODING 42
SWIDTH 602 0
DWIDTH 8 0
BBX 8 19 0 -4
BITMAP
00
00
00
00
00
00
08
49
2A
1C
2A
49
08
00
00
00
00
00
00
ENDCHAR

STARTCHAR PlusSign
ENCODING 43
SWIDTH 602 0
DWIDTH 8 0
BBX 8 19 0 -4
BITMAP
00
00
00
00
00
00
08
08
08
7F
08
08
08
00
00
00
00
00
00
ENDCHAR

STARTCHAR Comma
ENCODING 44
SWIDTH 602 0
DWIDTH 8 0
BBX 8 19 0 -4
BITMAP
00
00
00
00
00
00
00
00
00
00
00
00
18
18
18
08
10
20
00
ENDCHAR

STARTCHAR Hyphen
ENCODING 45
SWIDTH 602 0
DWIDTH 8 0
BBX 8 19 0 -4
BITMAP
00
00
00
00
00
00
00
00
00
7E
00
00
00
00
00
00
00
00
00
ENDCHAR

STARTCHAR Period
ENCODING 46
SWIDTH 602 0
DWIDTH 8 0
BBX 8 19 0 -4
BITMAP
00
00
00
00
00
00
00
00
00
00
00
00
18
18
18
00
00
00
00
ENDCHAR

STARTCHAR Slash
ENCODING 47
SWIDTH 602 0
DWIDTH 8 0
BBX 8 19 0 -4
BITMAP
00
02
02
04
04
04
08
08
08
10
10
10
20
20
20
40
40
00
00
ENDCHAR

STARTCHAR Zero
ENCODING 48
SWIDTH 602 0
DWIDTH 8 0
BBX 8 19 0 -4
BITMAP
00
00
00
3C
42
42
42
42
5A
5A
42
42
42
42
3C
00
00
00
00
ENDCHAR

STARTCHAR One
ENCODING 49
SWIDTH 602 0
DWIDTH 8 0
BBX 8 19 0 -4
BITMAP
00
00
00
08
18
68
08
08
08
08
08
08
08
08
08
00
00
00
00
ENDCHAR

STARTCHAR Two
ENCODING 50
SWIDTH 602 0
DWIDTH 8 0
BBX 8 19 0 -4
BITMAP
00
00
00
3C
42
42
42
02
04
08
10
20
40
42
7E
00
00
00
00
ENDCHAR

STARTCHAR Three
ENCODING 51
SWIDTH 602 0
DWIDTH 8 0
BBX 8 19 0 -4
BITMAP
00
00
00
3C
42
42
02
02
1C
02
02
02
02
42
3C
00
00
00
00
ENDCHAR

STARTCHAR Four
ENCODING 52
SWIDTH 602 0
DWIDTH 8 0
BBX 8 19 0 -4
BITMAP
00
00
00
08
08
10
10
24
24
44
44
7E
04
04
04
00
00
00
00
ENDCHAR

STARTCHAR Five
ENCODING 53
SWIDTH 602 0
DWIDTH 8 0
BBX 8 19 0 -4
BITMAP
00
00
00
3E
20
20
20
3C
02
02
02
02
02
42
3C
00
00
00
00
ENDCHAR

STARTCHAR Six
ENCODING 54
SWIDTH 602 0
DWIDTH 8 0
BBX 8 19 0 -4
BITMAP
00
00
00
1E
20
20
40
5C
62
42
42
42
42
42
3C
00
00
00
00
ENDCHAR

STARTCHAR Seven
ENCODING 55
SWIDTH 602 0
DWIDTH 8 0
BBX 8 19 0 -4
BITMAP
00
00
00
7E
02
02
04
04
08
08
08
10
10
10
10
00
00
00
00
ENDCHAR

STARTCHAR Eight
ENCODING 56
SWIDTH 602 0
DWIDTH 8 0
BBX 8 19 0 -4
BITMAP
00
00
00
3C
42
42
42
42
3C
42
42
42
42
42
3C
00
00
00
00
ENDCHAR

STARTCHAR Nine
ENCODING 57
SWIDTH 602 0
DWIDTH 8 0
BBX 8 19 0 -4
BITMAP
00
00
00
3C
42
42
42
42
42
46
3A
02
04
04
78
00
00
00
00
ENDCHAR

STARTCHAR Colon
ENCODING 58
SWIDTH 602 0
DWIDTH 8 0
BBX 8 19 0 -4
BITMAP
00
00
00
00
00
00
00
18
18
18
00
00
18
18
18
00
00
00
00
ENDCHAR

STARTCHAR Simicolon
ENCODING 59
SWIDTH 602 0
DWIDTH 8 0
BBX 8 19 0 -4
BITMAP
00
00
00
00
00
00
00
18
18
18
00
00
18
18
18
08
10
20
00
ENDCHAR

STARTCHAR LessThanSign
ENCODING 60
SWIDTH 602 0
DWIDTH 8 0
BBX 8 19 0 -4
BITMAP
00
00
00
00
02
04
08
10
20
40
20
10
08
04
02
00
00
00
00
ENDCHAR

STARTCHAR EqualsSign
ENCODING 61
SWIDTH 602 0
DWIDTH 8 0
BBX 8 19 0 -4
BITMAP
00
00
00
00
00
00
00
00
7F
00
7F
00
00
00
00
00
00
00
00
ENDCHAR

STARTCHAR GreatrThanSign
ENCODING 62
SWIDTH 602 0
DWIDTH 8 0
BBX 8 19 0 -4
BITMAP
00
00
00
00
40
20
10
08
04
02
04
08
10
20
40
00
00
00
00
ENDCHAR

STARTCHAR QuestionMark
ENCODING 63
SWIDTH 602 0
DWIDTH 8 0
BBX 8 19 0 -4
BITMAP
00
00
3C
66
66
66
06
06
0C
18
18
00
00
18
18
18
00
00
00
ENDCHAR

STARTCHAR CommerclAtSign
ENCODING 64
SWIDTH 602 0
DWIDTH 8 0
BBX 8 19 0 -4
BITMAP
00
00
1C
22
22
42
4E
52
52
52
52
4D
40
20
22
1C
00
00
00
ENDCHAR

STARTCHAR A
ENCODING 65
SWIDTH 602 0
DWIDTH 8 0
BBX 8 19 0 -4
BITMAP
00
00
00
18
18
18
24
24
24
24
7E
42
42
42
E7
00
00
00
00
ENDCHAR

STARTCHAR B
ENCODING 66
SWIDTH 602 0
DWIDTH 8 0
BBX 8 19 0 -4
BITMAP
00
00
00
7C
22
22
22
22
3C
22
21
21
21
22
7C
00
00
00
00
ENDCHAR

STARTCHAR C
ENCODING 67
SWIDTH 602 0
DWIDTH 8 0
BBX 8 19 0 -4
BITMAP
00
00
00
1E
22
22
40
40
40
40
40
40
22
22
1C
00
00
00
00
ENDCHAR

STARTCHAR D
ENCODING 68
SWIDTH 602 0
DWIDTH 8 0
BBX 8 19 0 -4
BITMAP
00
00
00
7C
22
22
21
21
21
21
21
21
22
22
7C
00
00
00
00
ENDCHAR

STARTCHAR E
ENCODING 69
SWIDTH 602 0
DWIDTH 8 0
BBX 8 19 0 -4
BITMAP
00
00
00
7E
22
22
20
24
3C
24
20
20
22
22
7E
00
00
00
00
ENDCHAR

STARTCHAR F
ENCODING 70
SWIDTH 602 0
DWIDTH 8 0
BBX 8 19 0 -4
BITMAP
00
00
00
7E
22
22
20
24
3C
24
20
20
20
20
78
00
00
00
00
ENDCHAR

STARTCHAR G
ENCODING 71
SWIDTH 602 0
DWIDTH 8 0
BBX 8 19 0 -4
BITMAP
00
00
00
1E
22
22
40
40
40
40
47
42
22
22
1E
00
00
00
00
ENDCHAR

STARTCHAR H
ENCODING 72
SWIDTH 602 0
DWIDTH 8 0
BBX 8 19 0 -4
BITMAP
00
00
00
77
22
22
22
22
3E
22
22
22
22
22
77
00
00
00
00
ENDCHAR

STARTCHAR I
ENCODING 73
SWIDTH 602 0
DWIDTH 8 0
BBX 8 19 0 -4
BITMAP
00
00
00
3E
08
08
08
08
08
08
08
08
08
08
3E
00
00
00
00
ENDCHAR

STARTCHAR J
ENCODING 74
SWIDTH 602 0
DWIDTH 8 0
BBX 8 19 0 -4
BITMAP
00
00
00
1F
04
04
04
04
04
04
04
44
44
44
38
00
00
00
00
ENDCHAR

STARTCHAR K
ENCODING 75
SWIDTH 602 0
DWIDTH 8 0
BBX 8 19 0 -4
BITMAP
00
00
00
77
22
24
24
28
2C
34
24
26
22
22
77
00
00
00
00
ENDCHAR

STARTCHAR L
ENCODING 76
SWIDTH 602 0
DWIDTH 8 0
BBX 8 19 0 -4
BITMAP
00
00
00
7C
10
10
10
10
10
10
10
10
11
11
7F
00
00
00
00
ENDCHAR

STARTCHAR M
ENCODING 77
SWIDTH 602 0
DWIDTH 8 0
BBX 8 19 0 -4
BITMAP
00
00
00
63
22
36
36
36
2A
2A
2A
22
22
22
77
00
00
00
00
ENDCHAR

STARTCHAR N
ENCODING 78
SWIDTH 602 0
DWIDTH 8 0
BBX 8 19 0 -4
BITMAP
00
00
00
67
22
32
32
32
2A
2A
2A
26
26
22
72
00
00
00
00
ENDCHAR

STARTCHAR O
ENCODING 79
SWIDTH 602 0
DWIDTH 8 0
BBX 8 19 0 -4
BITMAP
00
00
00
1C
22
22
41
41
41
41
41
41
22
22
1C
00
00
00
00
ENDCHAR

STARTCHAR P
ENCODING 80
SWIDTH 602 0
DWIDTH 8 0
BBX 8 19 0 -4
BITMAP
00
00
00
7C
22
21
21
21
22
3C
20
20
20
20
78
00
00
00
00
ENDCHAR

STARTCHAR Q
ENCODING 81
SWIDTH 602 0
DWIDTH 8 0
BBX 8 19 0 -4
BITMAP
00
00
00
1C
22
22
41
41
41
41
41
41
22
22
1C
04
02
01
00
ENDCHAR

STARTCHAR R
ENCODING 82
SWIDTH 602 0
DWIDTH 8 0
BBX 8 19 0 -4
BITMAP
00
00
00
7C
22
21
21
21
22
3C
24
24
22
22
73
00
00
00
00
ENDCHAR

STARTCHAR S
ENCODING 83
SWIDTH 602 0
DWIDTH 8 0
BBX 8 19 0 -4
BITMAP
00
00
00
3E
42
42
40
40
30
0C
02
02
42
42
7C
00
00
00
00
ENDCHAR

STARTCHAR T
ENCODING 84
SWIDTH 602 0
DWIDTH 8 0
BBX 8 19 0 -4
BITMAP
00
00
00
7F
49
49
08
08
08
08
08
08
08
08
3E
00
00
00
00
ENDCHAR

STARTCHAR U
ENCODING 85
SWIDTH 602 0
DWIDTH 8 0
BBX 8 19 0 -4
BITMAP
00
00
00
E7
42
42
42
42
42
42
42
42
42
42
3C
00
00
00
00
ENDCHAR

STARTCHAR V
ENCODING 86
SWIDTH 602 0
DWIDTH 8 0
BBX 8 19 0 -4
BITMAP
00
00
00
E7
42
42
42
42
24
24
24
24
18
18
18
00
00
00
00
ENDCHAR

STARTCHAR W
ENCODING 87
SWIDTH 602 0
DWIDTH 8 0
BBX 8 19 0 -4
BITMAP
00
00
00
E7
42
42
42
5A
5A
5A
5A
24
24
24
24
00
00
00
00
ENDCHAR

STARTCHAR X
ENCODING 88
SWIDTH 602 0
DWIDTH 8 0
BBX 8 19 0 -4
BITMAP
00
00
00
77
22
22
14
14
08
08
14
14
22
22
77
00
00
00
00
ENDCHAR

STARTCHAR Y
ENCODING 89
SWIDTH 602 0
DWIDTH 8 0
BBX 8 19 0 -4
BITMAP
00
00
00
77
22
22
14
14
14
08
08
08
08
08
3E
00
00
00
00
ENDCHAR

STARTCHAR Z
ENCODING 90
SWIDTH 602 0
DWIDTH 8 0
BBX 8 19 0 -4
BITMAP
00
00
00
7E
42
44
04
08
08
10
10
20
22
42
7E
00
00
00
00
ENDCHAR

STARTCHAR OpenBracket
ENCODING 91
SWIDTH 602 0
DWIDTH 8 0
BBX 8 19 0 -4
BITMAP
00
1E
18
18
18
18
18
18
18
18
18
18
18
18
18
18
1E
00
00
ENDCHAR

STARTCHAR BackSlash
ENCODING 92
SWIDTH 602 0
DWIDTH 8 0
BBX 8 19 0 -4
BITMAP
00
40
40
20
20
20
10
10
10
08
08
08
04
04
04
02
02
00
00
ENDCHAR

STARTCHAR CloseBracket
ENCODING 93
SWIDTH 602 0
DWIDTH 8 0
BBX 8 19 0 -4
BITMAP
00
3C
0C
0C
0C
0C
0C
0C
0C
0C
0C
0C
0C
0C
0C
0C
3C
00
00
ENDCHAR

STARTCHAR Circumflex
ENCODING 94
SWIDTH 602 0
DWIDTH 8 0
BBX 8 19 0 -4
BITMAP
00
00
00
18
18
24
42
00
00
00
00
00
00
00
00
00
00
00
00
ENDCHAR

STARTCHAR Underscore
ENCODING 95
SWIDTH 602 0
DWIDTH 8 0
BBX 8 19 0 -4
BITMAP
00
00
00
00
00
00
00
00
00
00
00
00
00
00
00
FF
00
00
00
ENDCHAR

STARTCHAR SingleOpenQuot
ENCODING 96
SWIDTH 602 0
DWIDTH 8 0
BBX 8 19 0 -4
BITMAP
00
00
04
08
10
18
18
18
00
00
00
00
00
00
00
00
00
00
00
ENDCHAR

STARTCHAR a
ENCODING 97
SWIDTH 602 0
DWIDTH 8 0
BBX 8 19 0 -4
BITMAP
00
00
00
00
00
00
00
38
44
04
3C
44
44
4C
36
00
00
00
00
ENDCHAR

STARTCHAR b
ENCODING 98
SWIDTH 602 0
DWIDTH 8 0
BBX 8 19 0 -4
BITMAP
00
00
00
40
C0
40
40
58
64
42
42
42
42
64
58
00
00
00
00
ENDCHAR

STARTCHAR c
ENCODING 99
SWIDTH 602 0
DWIDTH 8 0
BBX 8 19 0 -4
BITMAP
00
00
00
00
00
00
00
1C
24
44
40
40
40
24
18
00
00
00
00
ENDCHAR

STARTCHAR d
ENCODING 100
SWIDTH 602 0
DWIDTH 8 0
BBX 8 19 0 -4
BITMAP
00
00
00
02
06
02
02
1A
26
42
42
42
42
26
1B
00
00
00
00
ENDCHAR

STARTCHAR e
ENCODING 101
SWIDTH 602 0
DWIDTH 8 0
BBX 8 19 0 -4
BITMAP
00
00
00
00
00
00
00
1C
22
42
7E
40
40
22
1C
00
00
00
00
ENDCHAR

STARTCHAR f
ENCODING 102
SWIDTH 602 0
DWIDTH 8 0
BBX 8 19 0 -4
BITMAP
00
00
00
0E
10
10
10
7E
10
10
10
10
10
10
7E
00
00
00
00
ENDCHAR

STARTCHAR g
ENCODING 103
SWIDTH 602 0
DWIDTH 8 0
BBX 8 19 0 -4
BITMAP
00
00
00
00
00
00
00
38
46
44
44
44
38
40
3C
42
42
3C
00
ENDCHAR

STARTCHAR h
ENCODING 104
SWIDTH 602 0
DWIDTH 8 0
BBX 8 19 0 -4
BITMAP
00
00
00
20
60
20
20
2C
32
22
22
22
22
22
77
00
00
00
00
ENDCHAR

STARTCHAR i
ENCODING 105
SWIDTH 602 0
DWIDTH 8 0
BBX 8 19 0 -4
BITMAP
00
00
00
08
1C
08
00
08
78
08
08
08
08
08
7F
00
00
00
00
ENDCHAR

STARTCHAR j
ENCODING 106
SWIDTH 602 0
DWIDTH 8 0
BBX 8 19 0 -4
BITMAP
00
00
00
04
0E
04
00
04
3C
04
04
04
04
04
04
04
44
38
00
ENDCHAR

STARTCHAR k
ENCODING 107
SWIDTH 602 0
DWIDTH 8 0
BBX 8 19 0 -4
BITMAP
00
00
00
20
60
20
20
27
22
24
28
34
24
22
73
00
00
00
00
ENDCHAR

STARTCHAR l
ENCODING 108
SWIDTH 602 0
DWIDTH 8 0
BBX 8 19 0 -4
BITMAP
00
00
00
08
38
08
08
08
08
08
08
08
08
08
3E
00
00
00
00
ENDCHAR

STARTCHAR m
ENCODING 109
SWIDTH 602 0
DWIDTH 8 0
BBX 8 19 0 -4
BITMAP
00
00
00
00
00
00
00
52
ED
49
49
49
49
49
DB
00
00
00
00
ENDCHAR

STARTCHAR n
ENCODING 110
SWIDTH 602 0
DWIDTH 8 0
BBX 8 19 0 -4
BITMAP
00
00
00
00
00
00
00
2C
72
22
22
22
22
22
77
00
00
00
00
ENDCHAR

STARTCHAR o
ENCODING 111
SWIDTH 602 0
DWIDTH 8 0
BBX 8 19 0 -4
BITMAP
00
00
00
00
00
00
00
18
24
42
42
42
42
24
18
00
00
00
00
ENDCHAR

STARTCHAR p
ENCODING 112
SWIDTH 602 0
DWIDTH 8 0
BBX 8 19 0 -4
BITMAP
00
00
00
00
00
00
00
2C
72
21
21
21
21
32
2C
20
20
78
00
ENDCHAR

STARTCHAR q
ENCODING 113
SWIDTH 602 0
DWIDTH 8 0
BBX 8 19 0 -4
BITMAP
00
00
00
00
00
00
00
1A
26
42
42
42
42
26
1A
02
02
0F
00
ENDCHAR

STARTCHAR r
ENCODING 114
SWIDTH 602 0
DWIDTH 8 0
BBX 8 19 0 -4
BITMAP
00
00
00
00
00
00
00
26
6A
30
20
20
20
20
78
00
00
00
00
ENDCHAR

STARTCHAR s
ENCODING 115
SWIDTH 602 0
DWIDTH 8 0
BBX 8 19 0 -4
BITMAP
00
00
00
00
00
00
00
1E
22
20
18
04
02
22
3C
00
00
00
00
ENDCHAR

STARTCHAR t
ENCODING 116
SWIDTH 602 0
DWIDTH 8 0
BBX 8 19 0 -4
BITMAP
00
00
00
00
10
10
10
7E
10
10
10
10
10
11
0E
00
00
00
00
ENDCHAR

STARTCHAR u
ENCODING 117
SWIDTH 602 0
DWIDTH 8 0
BBX 8 19 0 -4
BITMAP
00
00
00
00
00
00
00
22
66
22
22
22
22
27
1A
00
00
00
00
ENDCHAR

STARTCHAR v
ENCODING 118
SWIDTH 602 0
DWIDTH 8 0
BBX 8 19 0 -4
BITMAP
00
00
00
00
00
00
00
77
22
22
14
14
14
08
08
00
00
00
00
ENDCHAR

STARTCHAR w
ENCODING 119
SWIDTH 602 0
DWIDTH 8 0
BBX 8 19 0 -4
BITMAP
00
00
00
00
00
00
00
E7
42
5A
5A
5A
24
24
24
00
00
00
00
ENDCHAR

STARTCHAR x
ENCODING 120
SWIDTH 602 0
DWIDTH 8 0
BBX 8 19 0 -4
BITMAP
00
00
00
00
00
00
00
77
22
14
08
08
14
22
77
00
00
00
00
ENDCHAR

STARTCHAR y
ENCODING 121
SWIDTH 602 0
DWIDTH 8 0
BBX 8 19 0 -4
BITMAP
00
00
00
00
00
00
00
77
22
22
14
14
14
08
08
10
50
60
00
ENDCHAR

STARTCHAR z
ENCODING 122
SWIDTH 602 0
DWIDTH 8 0
BBX 8 19 0 -4
BITMAP
00
00
00
00
00
00
00
3E
22
04
08
08
10
22
3E
00
00
00
00
ENDCHAR

STARTCHAR OpenBrace
ENCODING 123
SWIDTH 602 0
DWIDTH 8 0
BBX 8 19 0 -4
BITMAP
00
0E
18
18
18
18
18
10
60
10
18
18
18
18
18
18
0E
00
00
ENDCHAR

STARTCHAR LongVertMark
ENCODING 124
SWIDTH 602 0
DWIDTH 8 0
BBX 8 19 0 -4
BITMAP
00
00
08
08
08
08
08
08
08
08
08
08
08
08
08
08
00
00
00
ENDCHAR

STARTCHAR CloseBrace
ENCODING 125
SWIDTH 602 0
DWIDTH 8 0
BBX 8 19 0 -4
BITMAP
00
70
18
18
18
18
18
08
06
08
18
18
18
18
18
18
70
00
00
ENDCHAR

STARTCHAR OneWavyLine
ENCODING 126
SWIDTH 602 0
DWIDTH 8 0
BBX 8 19 0 -4
BITMAP
00
00
00
00
00
00
00
00
10
39
4E
04
00
00
00
00
00
00
00
ENDCHAR

STARTCHAR MediumShading
ENCODING 127
SWIDTH 602 0
DWIDTH 8 0
BBX 8 19 0 -4
BITMAP
CC
CC
33
33
CC
CC
33
33
CC
CC
33
33
CC
CC
33
33
CC
CC
33
ENDCHAR

STARTCHAR InvExclamation
ENCODING 161
SWIDTH 602 0
DWIDTH 8 0
BBX 8 19 0 -4
BITMAP
00
00
18
18
18
00
00
18
18
18
18
18
18
18
18
18
00
00
00
ENDCHAR

STARTCHAR CentSign
ENCODING 162
SWIDTH 602 0
DWIDTH 8 0
BBX 8 19 0 -4
BITMAP
00
00
00
00
08
08
1E
22
42
40
40
40
22
1C
08
08
00
00
00
ENDCHAR

STARTCHAR SterlingSign
ENCODING 163
SWIDTH 602 0
DWIDTH 8 0
BBX 8 19 0 -4
BITMAP
00
00
00
1C
22
20
20
20
7C
20
7C
20
20
32
4C
00
00
00
00
ENDCHAR

STARTCHAR CurrencySymbol
ENCODING 164
SWIDTH 602 0
DWIDTH 8 0
BBX 8 19 0 -4
BITMAP
00
00
00
81
5A
24
42
42
24
5A
81
00
00
00
00
00
00
00
00
ENDCHAR

STARTCHAR Yensign
ENCODING 165
SWIDTH 602 0
DWIDTH 8 0
BBX 8 19 0 -4
BITMAP
00
00
00
77
22
22
14
77
14
7F
08
08
08
08
3E
00
00
00
00
ENDCHAR

STARTCHAR BrokenBar
ENCODING 166
SWIDTH 667 0
DWIDTH 8 0
BBX 8 19 0 -4
BITMAP
00
00
08
08
08
08
08
08
00
00
08
08
08
08
08
08
00
00
00
ENDCHAR

STARTCHAR SectionMark
ENCODING 167
SWIDTH 602 0
DWIDTH 8 0
BBX 8 19 0 -4
BITMAP
00
00
00
1C
22
22
20
18
24
22
22
12
0C
02
22
22
1C
00
00
ENDCHAR

STARTCHAR diaeresisAccnt
ENCODING 168
SWIDTH 602 0
DWIDTH 8 0
BBX 8 19 0 -4
BITMAP
00
00
00
00
66
66
00
00
00
00
00
00
00
00
00
00
00
00
00
ENDCHAR

STARTCHAR CopyrightSign
ENCODING 169
SWIDTH 667 0
DWIDTH 8 0
BBX 8 19 0 -4
BITMAP
00
00
00
3C
42
9D
A5
A1
A5
99
42
3C
00
00
00
00
00
00
00
ENDCHAR

STARTCHAR FemaleOrdinal
ENCODING 170
SWIDTH 602 0
DWIDTH 8 0
BBX 8 19 0 -4
BITMAP
00
00
00
18
04
1C
24
24
1C
00
3C
00
00
00
00
00
00
00
00
ENDCHAR

STARTCHAR DblOpenAnglQut
ENCODING 171
SWIDTH 602 0
DWIDTH 8 0
BBX 8 19 0 -4
BITMAP
00
00
00
00
00
00
00
00
09
12
24
48
24
12
09
00
00
00
00
ENDCHAR

STARTCHAR NotSign
ENCODING 172
SWIDTH 667 0
DWIDTH 8 0
BBX 8 19 0 -4
BITMAP
00
00
00
00
00
00
00
00
00
7F
01
01
01
00
00
00
00
00
00
ENDCHAR

STARTCHAR SoftHyphen
ENCODING 173
SWIDTH 667 0
DWIDTH 8 0
BBX 8 19 0 -4
BITMAP
00
00
00
00
00
00
00
00
00
3E
00
00
00
00
00
00
00
00
00
ENDCHAR

STARTCHAR RegTradeMark
ENCODING 174
SWIDTH 667 0
DWIDTH 8 0
BBX 8 19 0 -4
BITMAP
00
00
00
3C
42
B9
95
99
95
B5
42
3C
00
00
00
00
00
00
00
ENDCHAR

STARTCHAR Macron
ENCODING 175
SWIDTH 667 0
DWIDTH 8 0
BBX 8 19 0 -4
BITMAP
00
00
00
00
7E
00
00
00
00
00
00
00
00
00
00
00
00
00
00
ENDCHAR

STARTCHAR DegreeSign
ENCODING 176
SWIDTH 602 0
DWIDTH 8 0
BBX 8 19 0 -4
BITMAP
00
00
00
18
24
24
24
18
00
00
00
00
00
00
00
00
00
00
00
ENDCHAR

STARTCHAR PlusOverMinus
ENCODING 177
SWIDTH 602 0
DWIDTH 8 0
BBX 8 19 0 -4
BITMAP
00
00
00
00
00
00
08
08
08
7F
08
08
08
00
7F
00
00
00
00
ENDCHAR

STARTCHAR SuperscriptTwo
ENCODING 178
SWIDTH 667 0
DWIDTH 8 0
BBX 8 19 0 -4
BITMAP
00
00
00
18
24
24
08
10
20
24
3C
00
00
00
00
00
00
00
00
ENDCHAR

STARTCHAR Superscript3
ENCODING 179
SWIDTH 667 0
DWIDTH 8 0
BBX 8 19 0 -4
BITMAP
00
00
00
18
24
04
18
04
04
24
18
00
00
00
00
00
00
00
00
ENDCHAR

STARTCHAR acuteAccent
ENCODING 180
SWIDTH 602 0
DWIDTH 8 0
BBX 8 19 0 -4
BITMAP
00
00
00
06
0C
10
00
00
00
00
00
00
00
00
00
00
00
00
00
ENDCHAR

STARTCHAR muGreek
ENCODING 181
SWIDTH 602 0
DWIDTH 8 0
BBX 8 19 0 -4
BITMAP
00
00
00
00
00
00
00
11
11
11
11
22
22
32
2D
40
40
40
00
ENDCHAR

STARTCHAR ParagraphSign
ENCODING 182
SWIDTH 602 0
DWIDTH 8 0
BBX 8 19 0 -4
BITMAP
00
00
00
3B
7A
7A
7A
7A
3A
0A
0A
0A
0A
0A
0A
0A
00
00
00
ENDCHAR

STARTCHAR middleDot
ENCODING 183
SWIDTH 602 0
DWIDTH 8 0
BBX 8 19 0 -4
BITMAP
00
00
00
00
18
18
00
00
00
00
00
00
00
00
00
00
00
00
00
ENDCHAR

STARTCHAR Cedilla
ENCODING 184
SWIDTH 667 0
DWIDTH 8 0
BBX 8 19 0 -4
BITMAP
00
00
00
00
00
00
00
00
00
00
00
00
00
00
00
08
04
38
00
ENDCHAR

STARTCHAR SuperscriptOne
ENCODING 185
SWIDTH 667 0
DWIDTH 8 0
BBX 8 19 0 -4
BITMAP
00
00
00
08
38
08
08
08
08
08
08
00
00
00
00
00
00
00
00
ENDCHAR

STARTCHAR MaleOrdinal
ENCODING 186
SWIDTH 602 0
DWIDTH 8 0
BBX 8 19 0 -4
BITMAP
00
00
00
18
24
24
24
24
18
00
3C
00
00
00
00
00
00
00
00
ENDCHAR

STARTCHAR DblClosAnglQut
ENCODING 187
SWIDTH 602 0
DWIDTH 8 0
BBX 8 19 0 -4
BITMAP
00
00
00
00
00
00
00
00
48
24
12
09
12
24
48
00
00
00
00
ENDCHAR

STARTCHAR FracOneFourth
ENCODING 188
SWIDTH 602 0
DWIDTH 8 0
BBX 8 19 0 -4
BITMAP
00
20
E0
20
20
20
20
21
26
18
64
84
08
0A
12
1F
02
02
00
ENDCHAR

STARTCHAR FracOneHalf
ENCODING 189
SWIDTH 602 0
DWIDTH 8 0
BBX 8 19 0 -4
BITMAP
00
20
E0
20
20
20
20
21
26
18
66
89
09
02
04
08
09
0F
00
ENDCHAR

STARTCHAR FracThreeFour
ENCODING 190
SWIDTH 602 0
DWIDTH 8 0
BBX 8 19 0 -4
BITMAP
00
60
90
10
60
10
10
91
66
18
64
84
08
0A
12
1F
02
02
00
ENDCHAR

STARTCHAR InvertQuestion
ENCODING 191
SWIDTH 602 0
DWIDTH 8 0
BBX 8 19 0 -4
BITMAP
00
00
18
18
18
00
00
18
18
30
60
60
66
66
66
3C
00
00
00
ENDCHAR

STARTCHAR Agrave
ENCODING 192
SWIDTH 602 0
DWIDTH 8 0
BBX 8 19 0 -4
BITMAP
30
18
04
00
18
18
24
24
24
24
7E
42
42
42
E7
00
00
00
00
ENDCHAR

STARTCHAR Aacute
ENCODING 193
SWIDTH 602 0
DWIDTH 8 0
BBX 8 19 0 -4
BITMAP
06
0C
10
00
18
18
24
24
24
24
7E
42
42
42
E7
00
00
00
00
ENDCHAR

STARTCHAR Acircumflex
ENCODING 194
SWIDTH 602 0
DWIDTH 8 0
BBX 8 19 0 -4
BITMAP
18
3C
42
00
18
18
24
24
24
24
7E
42
42
42
E7
00
00
00
00
ENDCHAR

STARTCHAR Atilde
ENCODING 195
SWIDTH 602 0
DWIDTH 8 0
BBX 8 19 0 -4
BITMAP
00
39
4E
00
18
18
24
24
24
24
7E
42
42
42
E7
00
00
00
00
ENDCHAR

STARTCHAR Adiaeresis
ENCODING 196
SWIDTH 602 0
DWIDTH 8 0
BBX 8 19 0 -4
BITMAP
00
66
66
00
18
18
24
24
24
24
7E
42
42
42
E7
00
00
00
00
ENDCHAR

STARTCHAR Abolle
ENCODING 197
SWIDTH 602 0
DWIDTH 8 0
BBX 8 19 0 -4
BITMAP
18
24
24
24
18
18
24
24
24
24
7E
42
42
42
E7
00
00
00
00
ENDCHAR

STARTCHAR AEdiphthong
ENCODING 198
SWIDTH 602 0
DWIDTH 8 0
BBX 8 19 0 -4
BITMAP
00
00
00
3F
19
19
28
2A
2E
2A
78
48
49
49
EF
00
00
00
00
ENDCHAR

STARTCHAR Ccedilla
ENCODING 199
SWIDTH 602 0
DWIDTH 8 0
BBX 8 19 0 -4
BITMAP
00
00
00
1E
22
22
40
40
40
40
40
40
22
22
1C
08
0C
22
1C
ENDCHAR

STARTCHAR Egrave
ENCODING 200
SWIDTH 602 0
DWIDTH 8 0
BBX 8 19 0 -4
BITMAP
30
18
04
00
7E
22
22
20
24
3C
24
20
22
22
7E
00
00
00
00
ENDCHAR

STARTCHAR Eacute
ENCODING 201
SWIDTH 602 0
DWIDTH 8 0
BBX 8 19 0 -4
BITMAP
06
0C
10
00
7E
22
22
20
24
3C
24
20
22
22
7E
00
00
00
00
ENDCHAR

STARTCHAR Ecircumflex
ENCODING 202
SWIDTH 602 0
DWIDTH 8 0
BBX 8 19 0 -4
BITMAP
08
1C
22
00
7E
22
22
20
24
3C
24
20
22
22
7E
00
00
00
00
ENDCHAR

STARTCHAR Ediaeresis
ENCODING 203
SWIDTH 602 0
DWIDTH 8 0
BBX 8 19 0 -4
BITMAP
00
66
66
00
7E
22
22
20
24
3C
24
20
22
22
7E
00
00
00
00
ENDCHAR

STARTCHAR Igrave
ENCODING 204
SWIDTH 602 0
DWIDTH 8 0
BBX 8 19 0 -4
BITMAP
30
18
04
00
3E
08
08
08
08
08
08
08
08
08
3E
00
00
00
00
ENDCHAR

STARTCHAR Iacute
ENCODING 205
SWIDTH 602 0
DWIDTH 8 0
BBX 8 19 0 -4
BITMAP
06
0C
10
00
3E
08
08
08
08
08
08
08
08
08
3E
00
00
00
00
ENDCHAR

STARTCHAR Icircumflex
ENCODING 206
SWIDTH 602 0
DWIDTH 8 0
BBX 8 19 0 -4
BITMAP
08
1C
22
00
3E
08
08
08
08
08
08
08
08
08
3E
00
00
00
00
ENDCHAR

STARTCHAR Idiaeresis
ENCODING 207
SWIDTH 602 0
DWIDTH 8 0
BBX 8 19 0 -4
BITMAP
00
63
63
00
3E
08
08
08
08
08
08
08
08
08
3E
00
00
00
00
ENDCHAR

STARTCHAR Eth
ENCODING 208
SWIDTH 602 0
DWIDTH 8 0
BBX 8 19 0 -4
BITMAP
00
00
00
7C
22
22
21
21
79
21
21
21
22
22
7C
00
00
00
00
ENDCHAR

STARTCHAR Ntilde
ENCODING 209
SWIDTH 602 0
DWIDTH 8 0
BBX 8 19 0 -4
BITMAP
00
39
4E
00
67
22
32
32
2A
2A
2A
26
26
22
72
00
00
00
00
ENDCHAR

STARTCHAR Ograve
ENCODING 210
SWIDTH 602 0
DWIDTH 8 0
BBX 8 19 0 -4
BITMAP
30
18
04
00
1C
22
22
41
41
41
41
41
22
22
1C
00
00
00
00
ENDCHAR

STARTCHAR Oacute
ENCODING 211
SWIDTH 602 0
DWIDTH 8 0
BBX 8 19 0 -4
BITMAP
06
0C
10
00
1C
22
22
41
41
41
41
41
22
22
1C
00
00
00
00
ENDCHAR

STARTCHAR Ocircumflex
ENCODING 212
SWIDTH 602 0
DWIDTH 8 0
BBX 8 19 0 -4
BITMAP
08
1C
22
00
1C
22
22
41
41
41
41
41
22
22
1C
00
00
00
00
ENDCHAR

STARTCHAR Otilde
ENCODING 213
SWIDTH 602 0
DWIDTH 8 0
BBX 8 19 0 -4
BITMAP
00
39
4E
00
1C
22
22
41
41
41
41
41
22
22
1C
00
00
00
00
ENDCHAR

STARTCHAR Odiaeresis
ENCODING 214
SWIDTH 602 0
DWIDTH 8 0
BBX 8 19 0 -4
BITMAP
00
63
63
00
1C
22
22
41
41
41
41
41
22
22
1C
00
00
00
00
ENDCHAR

STARTCHAR Multiplication
ENCODING 215
SWIDTH 667 0
DWIDTH 8 0
BBX 8 19 0 -4
BITMAP
00
00
00
00
00
00
41
22
14
08
14
22
41
00
00
00
00
00
00
ENDCHAR

STARTCHAR Ooblique
ENCODING 216
SWIDTH 602 0
DWIDTH 8 0
BBX 8 19 0 -4
BITMAP
00
00
01
1D
22
22
45
45
49
49
51
51
22
22
5C
40
00
00
00
ENDCHAR

STARTCHAR Ugrave
ENCODING 217
SWIDTH 602 0
DWIDTH 8 0
BBX 8 19 0 -4
BITMAP
30
18
04
00
E7
42
42
42
42
42
42
42
42
42
3C
00
00
00
00
ENDCHAR

STARTCHAR Uacute
ENCODING 218
SWIDTH 602 0
DWIDTH 8 0
BBX 8 19 0 -4
BITMAP
06
0C
10
00
E7
42
42
42
42
42
42
42
42
42
3C
00
00
00
00
ENDCHAR

STARTCHAR Ucircumflex
ENCODING 219
SWIDTH 602 0
DWIDTH 8 0
BBX 8 19 0 -4
BITMAP
18
3C
42
00
E7
42
42
42
42
42
42
42
42
42
3C
00
00
00
00
ENDCHAR

STARTCHAR Udiaeresis
ENCODING 220
SWIDTH 602 0
DWIDTH 8 0
BBX 8 19 0 -4
BITMAP
00
66
66
00
E7
42
42
42
42
42
42
42
42
42
3C
00
00
00
00
ENDCHAR

STARTCHAR Yacute
ENCODING 221
SWIDTH 602 0
DWIDTH 8 0
BBX 8 19 0 -4
BITMAP
06
0C
10
00
77
22
22
14
14
08
08
08
08
08
3E
00
00
00
00
ENDCHAR

STARTCHAR Thorn
ENCODING 222
SWIDTH 602 0
DWIDTH 8 0
BBX 8 19 0 -4
BITMAP
00
00
00
70
20
3C
22
21
21
21
22
3C
20
20
70
00
00
00
00
ENDCHAR

STARTCHAR EsZetLigature
ENCODING 223
SWIDTH 602 0
DWIDTH 8 0
BBX 8 19 0 -4
BITMAP
00
00
00
38
44
44
44
44
58
44
42
42
52
52
CC
00
00
00
00
ENDCHAR

STARTCHAR agrave
ENCODING 224
SWIDTH 602 0
DWIDTH 8 0
BBX 8 19 0 -4
BITMAP
00
00
00
60
30
08
00
38
44
04
3C
44
44
4C
36
00
00
00
00
ENDCHAR

STARTCHAR aacute
ENCODING 225
SWIDTH 602 0
DWIDTH 8 0
BBX 8 19 0 -4
BITMAP
00
00
00
0C
18
20
00
38
44
04
3C
44
44
4C
36
00
00
00
00
ENDCHAR

STARTCHAR acircumflex
ENCODING 226
SWIDTH 602 0
DWIDTH 8 0
BBX 8 19 0 -4
BITMAP
00
00
00
10
38
44
00
38
44
04
3C
44
44
4C
36
00
00
00
00
ENDCHAR

STARTCHAR atilde
ENCODING 227
SWIDTH 602 0
DWIDTH 8 0
BBX 8 19 0 -4
BITMAP
00
00
00
00
32
4C
00
38
44
04
3C
44
44
4C
36
00
00
00
00
ENDCHAR

STARTCHAR adiaeresis
ENCODING 228
SWIDTH 602 0
DWIDTH 8 0
BBX 8 19 0 -4
BITMAP
00
00
00
00
66
66
00
38
44
04
3C
44
44
4C
36
00
00
00
00
ENDCHAR

STARTCHAR abolle
ENCODING 229
SWIDTH 602 0
DWIDTH 8 0
BBX 8 19 0 -4
BITMAP
00
18
24
24
24
18
00
38
44
04
3C
44
44
4C
36
00
00
00
00
ENDCHAR

STARTCHAR aedihthong
ENCODING 230
SWIDTH 602 0
DWIDTH 8 0
BBX 8 19 0 -4
BITMAP
00
00
00
00
00
00
00
36
49
09
3F
48
48
49
36
00
00
00
00
ENDCHAR

STARTCHAR ccedilla
ENCODING 231
SWIDTH 602 0
DWIDTH 8 0
BBX 8 19 0 -4
BITMAP
00
00
00
00
00
00
00
1C
24
44
40
40
40
24
18
10
18
44
38
ENDCHAR

STARTCHAR egrave
ENCODING 232
SWIDTH 602 0
DWIDTH 8 0
BBX 8 19 0 -4
BITMAP
00
00
00
30
18
04
00
1C
22
42
7E
40
40
22
1C
00
00
00
00
ENDCHAR

STARTCHAR eacute
ENCODING 233
SWIDTH 602 0
DWIDTH 8 0
BBX 8 19 0 -4
BITMAP
00
00
00
06
0C
10
00
1C
22
42
7E
40
40
22
1C
00
00
00
00
ENDCHAR

STARTCHAR ecircumflex
ENCODING 234
SWIDTH 602 0
DWIDTH 8 0
BBX 8 19 0 -4
BITMAP
00
00
00
08
1C
22
00
1C
22
42
7E
40
40
22
1C
00
00
00
00
ENDCHAR

STARTCHAR ediaeresis
ENCODING 235
SWIDTH 602 0
DWIDTH 8 0
BBX 8 19 0 -4
BITMAP
00
00
00
00
66
66
00
1C
22
42
7E
40
40
22
1C
00
00
00
00
ENDCHAR

STARTCHAR igrave
ENCODING 236
SWIDTH 602 0
DWIDTH 8 0
BBX 8 19 0 -4
BITMAP
00
00
00
30
18
04
00
08
78
08
08
08
08
08
7F
00
00
00
00
ENDCHAR

STARTCHAR iacute
ENCODING 237
SWIDTH 602 0
DWIDTH 8 0
BBX 8 19 0 -4
BITMAP
00
00
00
06
0C
10
00
08
78
08
08
08
08
08
7F
00
00
00
00
ENDCHAR

STARTCHAR icircumflex
ENCODING 238
SWIDTH 602 0
DWIDTH 8 0
BBX 8 19 0 -4
BITMAP
00
00
00
08
1C
22
00
08
78
08
08
08
08
08
7F
00
00
00
00
ENDCHAR

STARTCHAR idiaeresis
ENCODING 239
SWIDTH 602 0
DWIDTH 8 0
BBX 8 19 0 -4
BITMAP
00
00
00
00
66
66
00
08
78
08
08
08
08
08
7F
00
00
00
00
ENDCHAR

STARTCHAR ethIcelandic
ENCODING 240
SWIDTH 602 0
DWIDTH 8 0
BBX 8 19 0 -4
BITMAP
00
00
00
6C
10
68
04
1C
22
42
42
42
42
24
18
00
00
00
00
ENDCHAR

STARTCHAR ntilde
ENCODING 241
SWIDTH 602 0
DWIDTH 8 0
BBX 8 19 0 -4
BITMAP
00
00
00
00
39
4E
00
2C
72
22
22
22
22
22
77
00
00
00
00
ENDCHAR

STARTCHAR ograve
ENCODING 242
SWIDTH 602 0
DWIDTH 8 0
BBX 8 19 0 -4
BITMAP
00
00
00
30
18
04
00
18
24
42
42
42
42
24
18
00
00
00
00
ENDCHAR

STARTCHAR oacute
ENCODING 243
SWIDTH 602 0
DWIDTH 8 0
BBX 8 19 0 -4
BITMAP
00
00
00
06
0C
10
00
18
24
42
42
42
42
24
18
00
00
00
00
ENDCHAR

STARTCHAR ocircumflex
ENCODING 244
SWIDTH 602 0
DWIDTH 8 0
BBX 8 19 0 -4
BITMAP
00
00
00
18
3C
42
00
18
24
42
42
42
42
24
18
00
00
00
00
ENDCHAR

STARTCHAR otilde
ENCODING 245
SWIDTH 602 0
DWIDTH 8 0
BBX 8 19 0 -4
BITMAP
00
00
00
00
32
4C
00
18
24
42
42
42
42
24
18
00
00
00
00
ENDCHAR

STARTCHAR odiaeresis
ENCODING 246
SWIDTH 602 0
DWIDTH 8 0
BBX 8 19 0 -4
BITMAP
00
00
00
00
66
66
00
18
24
42
42
42
42
24
18
00
00
00
00
ENDCHAR

STARTCHAR DivideSign
ENCODING 247
SWIDTH 667 0
DWIDTH 8 0
BBX 8 19 0 -4
BITMAP
00
00
00
00
00
18
18
00
00
7E
00
00
18
18
00
00
00
00
00
ENDCHAR

STARTCHAR ooblique
ENCODING 248
SWIDTH 602 0
DWIDTH 8 0
BBX 8 19 0 -4
BITMAP
00
00
00
00
00
02
02
1C
24
4A
4A
52
52
24
38
40
40
00
00
ENDCHAR

STARTCHAR ugrave
ENCODING 249
SWIDTH 602 0
DWIDTH 8 0
BBX 8 19 0 -4
BITMAP
00
00
00
30
18
04
00
22
66
22
22
22
22
27
1A
00
00
00
00
ENDCHAR

STARTCHAR uacute
ENCODING 250
SWIDTH 602 0
DWIDTH 8 0
BBX 8 19 0 -4
BITMAP
00
00
00
06
0C
10
00
22
66
22
22
22
22
27
1A
00
00
00
00
ENDCHAR

STARTCHAR ucircumflex
ENCODING 251
SWIDTH 602 0
DWIDTH 8 0
BBX 8 19 0 -4
BITMAP
00
00
00
08
1C
22
00
22
66
22
22
22
22
27
1A
00
00
00
00
ENDCHAR

STARTCHAR udiaeresis
ENCODING 252
SWIDTH 602 0
DWIDTH 8 0
BBX 8 19 0 -4
BITMAP
00
00
00
00
66
66
00
22
66
22
22
22
22
27
1A
00
00
00
00
ENDCHAR

STARTCHAR yacute
ENCODING 253
SWIDTH 602 0
DWIDTH 8 0
BBX 8 19 0 -4
BITMAP
00
00
00
06
0C
10
00
77
22
22
14
14
14
08
08
10
50
60
00
ENDCHAR

STARTCHAR thorn
ENCODING 254
SWIDTH 602 0
DWIDTH 8 0
BBX 8 19 0 -4
BITMAP
00
00
00
20
60
20
20
2C
32
21
21
21
21
32
2C
20
20
78
00
ENDCHAR

STARTCHAR ydiaeresis
ENCODING 255
SWIDTH 602 0
DWIDTH 8 0
BBX 8 19 0 -4
BITMAP
00
00
00
00
63
63
00
77
22
22
14
14
14
08
08
10
50
60
00
ENDCHAR
ENDFONT
